<svg id="Calque_1" data-name="Calque 1" xmlns="http://www.w3.org/2000/svg" viewBox="0 0 28.55 45.5"><path d="M22.29,5.25l-1.11,1.5c-2.73,3.76-5.58,7.44-7.5,11.71a1.49,1.49,0,0,1-2.39.11,5.2,5.2,0,0,1-.91-1.34C9.33,15.13,8.33,13,7.27,10.91a12.53,12.53,0,0,0-1-1.37l-.37.08c0,1.37,0,2.73,0,4.09,0,1.91-.08,3.81,0,5.71.07,3.1.26,6.2.3,9.31,0,3.83,0,7.66,0,11.5,0,2.09-.35,2.35-2.35,1.76-.78-.24-1.57-.44-2.33-.72A2,2,0,0,1,0,39.15c0-4.89,0-9.79,0-14.68,0-6.95,0-13.9,0-20.85A2,2,0,0,1,.91,1.76a1.44,1.44,0,0,1,2.27.56A2.23,2.23,0,0,0,3.64,3C6.1,4.91,7.39,7.67,8.91,10.27c.68,1.17,1.46,2.29,2.14,3.46.43.75.74,1.56,1.16,2.45.3-.43.59-.87.9-1.3,3.2-4.31,6.38-8.64,9.61-12.94,1-1.33,2.27-1.18,3.07.31a16.8,16.8,0,0,1,1.76,10.18c-.41,3.5-1.06,7-1.47,10.47-.36,3.08-.61,6.19-.78,9.29-.2,3.52-.27,7.05-.39,10.57-.05,1.37-.41,1.61-1.58.9A17.38,17.38,0,0,1,21.09,42a4.1,4.1,0,0,1-1.28-2.89,99.86,99.86,0,0,1,.7-18.62c.42-3.83,1-7.65,1.51-11.47.13-.92.44-1.81.62-2.73a4.15,4.15,0,0,0,0-1Z"/></svg>